<svg xmlns="http://www.w3.org/2000/svg" width="512" height="512" viewBox="12.68415123809524 -23.798270261904776 348.9676345238095 348.9676345238095">
  <rect x="12.68415123809524" y="-23.798270261904776" width="348.9676345238095" height="348.9676345238095" fill="#100d1b"/>
  <path fill="#a98efa" d="M 52.902344 127.289062 L 89.507812 190.75 L 50.285156 258.667969 L 40.601562 275.429688 L 163.976562 275.429688 L 154.292969 258.667969 L 115.070312 190.75 L 102.289062 168.753906 L 81.566406 133.003906 L 135.796875 133.003906 L 141.992188 143.566406 L 177.726562 205.765625 L 187.410156 222.042969 L 196.707031 205.765625 L 232.441406 143.566406 L 239.027344 133.003906 L 292.773438 133.003906 L 272.53125 168.753906 L 259.75 190.75 L 220.046875 258.667969 L 210.847656 275.429688 L 333.734375 275.429688 L 324.535156 258.667969 L 284.832031 190.75 L 321.4375 127.289062 L 331.121094 110.527344 L 238.640625 110.527344 L 196.804688 41.347656 L 187.507812 25.941406 L 177.824219 41.347656 L 135.988281 110.527344 L 43.507812 110.527344 L 53.191406 127.289062 Z M 154.679688 121.957031 L 187.3125 68.1875 L 219.464844 121.957031 L 187.3125 177.960938 Z M 248.515625 253.339844 L 272.339844 212.742188 L 295.675781 253.339844 Z M 78.855469 253.339844 L 102.191406 212.742188 L 125.53125 253.339844 Z M 78.855469 253.339844" fill-rule="evenodd"/>
</svg>